# xmcd
#
# Track frame offsets:
#	150
#	9788
#	20281
#	30714
#	41994
#	52524
#	64989
#	77739
#	87384
#	97607
#	107567
#	118382
#
# Disc length: 1734 seconds
#
# Revision: 1
# Processed by: cddbd v1.5.2PL0 Copyright (c) Steve Scherf et al.
# Submitted via: audiograbber 1.83.01
#
DISCID=8706c40c
DTITLE=Roy Drusky - Yesterday's Gone
DYEAR=1964
DGENRE=Country
TTITLE0=Yesterday's Gone
TTITLE1=Lonely Street
TTITLE2=It Was Fun While It Lasted
TTITLE3=Tender Years
TTITLE4=End Of The World
TTITLE5=Before I Lost You
TTITLE6=Yesterday
TTITLE7=Burning Memories
TTITLE8=Our Last Night Together
TTITLE9=Together Again
TTITLE10=Legend In My Time
TTITLE11=Take Good Care Of Her
EXTD=
EXTT0=
EXTT1=
EXTT2=
EXTT3=
EXTT4=
EXTT5=
EXTT6=
EXTT7=
EXTT8=
EXTT9=
EXTT10=
EXTT11=
PLAYORDER=
